# MagicaVoxel @ Ephtracy

# group
g male_02-1

# material
mtllib male_02-1.mtl
usemtl palette

# normals
vn -1 0 0
vn 1 0 0
vn 0 0 1
vn 0 0 -1
vn 0 -1 0
vn 0 1 0

# texcoords
vt 0.0371094 0.5
vt 0.263672 0.5
vt 0.357422 0.5

# verts
v -8 0 4
v -8 0 -3
v -8 0 -4
v -8 1 -3
v -8 1 -4
v -8 32 4
v -8 32 -4
v 8 0 4
v 8 0 -3
v 8 0 -4
v 8 1 -3
v 8 1 -4
v 8 32 4
v 8 32 -4
v -8 0 4
v -8 32 4
v -6 2 4
v -6 3 4
v -6 9 4
v -6 10 4
v -5 1 4
v -5 2 4
v -5 3 4
v -5 5 4
v -5 6 4
v -5 9 4
v -5 10 4
v -5 11 4
v -5 17 4
v -5 18 4
v -5 24 4
v -5 26 4
v -4 0 4
v -4 1 4
v -4 3 4
v -4 5 4
v -4 6 4
v -4 13 4
v -4 14 4
v -4 19 4
v -4 20 4
v -3 1 4
v -3 2 4
v -3 3 4
v -3 5 4
v -3 18 4
v -3 19 4
v -3 20 4
v -3 21 4
v -3 22 4
v -3 24 4
v -3 25 4
v -3 26 4
v -2 1 4
v -2 2 4
v -2 3 4
v -2 4 4
v -2 10 4
v -2 11 4
v -2 13 4
v -2 14 4
v -2 17 4
v -2 18 4
v -2 23 4
v -2 24 4
v -2 25 4
v -1 0 4
v -1 1 4
v -1 2 4
v -1 3 4
v -1 4 4
v -1 5 4
v -1 9 4
v -1 10 4
v -1 11 4
v -1 12 4
v -1 13 4
v -1 15 4
v -1 16 4
v -1 18 4
v -1 19 4
v -1 21 4
v -1 22 4
v -1 23 4
v -1 24 4
v -1 25 4
v 1 0 4
v 1 1 4
v 1 2 4
v 1 3 4
v 1 4 4
v 1 5 4
v 1 9 4
v 1 10 4
v 1 11 4
v 1 12 4
v 1 13 4
v 1 15 4
v 1 16 4
v 1 18 4
v 1 19 4
v 1 21 4
v 1 22 4
v 1 23 4
v 1 24 4
v 1 25 4
v 2 1 4
v 2 2 4
v 2 3 4
v 2 4 4
v 2 10 4
v 2 11 4
v 2 13 4
v 2 14 4
v 2 17 4
v 2 18 4
v 2 23 4
v 2 24 4
v 2 25 4
v 3 1 4
v 3 2 4
v 3 3 4
v 3 5 4
v 3 18 4
v 3 19 4
v 3 20 4
v 3 21 4
v 3 22 4
v 3 24 4
v 3 25 4
v 3 26 4
v 4 0 4
v 4 1 4
v 4 3 4
v 4 5 4
v 4 6 4
v 4 13 4
v 4 14 4
v 4 19 4
v 4 20 4
v 5 1 4
v 5 2 4
v 5 3 4
v 5 5 4
v 5 6 4
v 5 9 4
v 5 10 4
v 5 11 4
v 5 17 4
v 5 18 4
v 5 24 4
v 5 26 4
v 6 2 4
v 6 3 4
v 6 9 4
v 6 10 4
v 8 0 4
v 8 32 4
v -8 0 -4
v -8 1 -4
v -8 32 -4
v -7 0 -4
v -7 1 -4
v -6 19 -4
v -6 20 -4
v -6 29 -4
v -6 30 -4
v -4 19 -4
v -4 20 -4
v -4 21 -4
v -3 20 -4
v -3 21 -4
v -3 28 -4
v -3 29 -4
v -3 30 -4
v -2 5 -4
v -2 6 -4
v -2 28 -4
v -2 29 -4
v -1 0 -4
v -1 5 -4
v -1 6 -4
v -1 12 -4
v -1 13 -4
v -1 16 -4
v -1 17 -4
v -1 22 -4
v -1 23 -4
v -1 25 -4
v -1 26 -4
v 1 0 -4
v 1 5 -4
v 1 6 -4
v 1 12 -4
v 1 13 -4
v 1 16 -4
v 1 17 -4
v 1 22 -4
v 1 23 -4
v 1 25 -4
v 1 26 -4
v 2 5 -4
v 2 6 -4
v 2 28 -4
v 2 29 -4
v 3 20 -4
v 3 21 -4
v 3 28 -4
v 3 29 -4
v 3 30 -4
v 4 19 -4
v 4 20 -4
v 4 21 -4
v 6 19 -4
v 6 20 -4
v 6 29 -4
v 6 30 -4
v 7 0 -4
v 7 1 -4
v 8 0 -4
v 8 1 -4
v 8 32 -4
v -8 0 4
v -4 0 4
v -1 0 4
v 1 0 4
v 4 0 4
v 8 0 4
v -4 0 3
v -1 0 3
v 1 0 3
v 4 0 3
v -8 0 -3
v -7 0 -3
v -1 0 -3
v 1 0 -3
v 7 0 -3
v 8 0 -3
v -8 0 -4
v -7 0 -4
v -1 0 -4
v 1 0 -4
v 7 0 -4
v 8 0 -4
v -8 32 4
v 8 32 4
v -8 32 -4
v 8 32 -4

# faces
f 4/3/1 2/3/1 1/3/1
f 4/2/1 3/2/1 2/2/1
f 5/2/1 3/2/1 4/2/1
f 6/3/1 4/3/1 1/3/1
f 6/3/1 5/3/1 4/3/1
f 7/3/1 5/3/1 6/3/1
f 8/3/2 9/3/2 11/3/2
f 9/2/2 10/2/2 11/2/2
f 11/2/2 10/2/2 12/2/2
f 8/3/2 11/3/2 13/3/2
f 11/3/2 12/3/2 13/3/2
f 13/3/2 12/3/2 14/3/2
f 17/3/3 16/3/3 15/3/3
f 18/3/3 16/3/3 17/3/3
f 19/3/3 16/3/3 18/3/3
f 20/3/3 16/3/3 19/3/3
f 21/3/3 17/3/3 15/3/3
f 22/2/3 18/2/3 17/2/3
f 22/3/3 17/3/3 21/3/3
f 23/3/3 19/3/3 18/3/3
f 23/2/3 18/2/3 22/2/3
f 24/3/3 19/3/3 23/3/3
f 25/3/3 19/3/3 24/3/3
f 26/2/3 20/2/3 19/2/3
f 26/3/3 19/3/3 25/3/3
f 27/3/3 16/3/3 20/3/3
f 27/2/3 20/2/3 26/2/3
f 28/3/3 16/3/3 27/3/3
f 29/3/3 16/3/3 28/3/3
f 30/3/3 16/3/3 29/3/3
f 31/3/3 16/3/3 30/3/3
f 32/3/3 16/3/3 31/3/3
f 33/3/3 21/3/3 15/3/3
f 34/2/3 22/2/3 21/2/3
f 34/3/3 21/3/3 33/3/3
f 35/3/3 23/3/3 22/3/3
f 35/3/3 24/3/3 23/3/3
f 36/2/3 25/2/3 24/2/3
f 36/3/3 24/3/3 35/3/3
f 37/3/3 26/3/3 25/3/3
f 37/2/3 25/2/3 36/2/3
f 37/3/3 27/3/3 26/3/3
f 38/3/3 29/3/3 28/3/3
f 39/3/3 29/3/3 38/3/3
f 40/3/3 31/3/3 30/3/3
f 41/3/3 31/3/3 40/3/3
f 42/2/3 22/2/3 34/2/3
f 42/2/3 34/2/3 33/2/3
f 43/3/3 35/3/3 22/3/3
f 43/2/3 22/2/3 42/2/3
f 44/2/3 36/2/3 35/2/3
f 44/3/3 35/3/3 43/3/3
f 45/3/3 37/3/3 36/3/3
f 45/2/3 36/2/3 44/2/3
f 46/2/3 30/2/3 29/2/3
f 46/3/3 40/3/3 30/3/3
f 47/2/3 41/2/3 40/2/3
f 47/3/3 40/3/3 46/3/3
f 48/3/3 31/3/3 41/3/3
f 48/2/3 41/2/3 47/2/3
f 49/3/3 31/3/3 48/3/3
f 50/3/3 31/3/3 49/3/3
f 51/1/3 32/1/3 31/1/3
f 51/3/3 31/3/3 50/3/3
f 52/1/3 32/1/3 51/1/3
f 53/3/3 16/3/3 32/3/3
f 53/1/3 32/1/3 52/1/3
f 54/3/3 43/3/3 42/3/3
f 54/2/3 42/2/3 33/2/3
f 55/2/3 44/2/3 43/2/3
f 55/3/3 43/3/3 54/3/3
f 56/3/3 45/3/3 44/3/3
f 56/2/3 44/2/3 55/2/3
f 57/3/3 45/3/3 56/3/3
f 58/2/3 28/2/3 27/2/3
f 58/3/3 45/3/3 57/3/3
f 58/3/3 27/3/3 37/3/3
f 58/3/3 37/3/3 45/3/3
f 59/3/3 38/3/3 28/3/3
f 59/2/3 28/2/3 58/2/3
f 60/2/3 39/2/3 38/2/3
f 60/3/3 38/3/3 59/3/3
f 61/3/3 29/3/3 39/3/3
f 61/2/3 39/2/3 60/2/3
f 62/2/3 47/2/3 46/2/3
f 62/3/3 29/3/3 61/3/3
f 62/2/3 46/2/3 29/2/3
f 63/2/3 47/2/3 62/2/3
f 64/3/3 51/3/3 50/3/3
f 65/2/3 52/2/3 51/2/3
f 65/3/3 51/3/3 64/3/3
f 66/3/3 53/3/3 52/3/3
f 66/2/3 52/2/3 65/2/3
f 67/2/3 54/2/3 33/2/3
f 67/2/3 55/2/3 54/2/3
f 68/2/3 55/2/3 67/2/3
f 69/3/3 56/3/3 55/3/3
f 69/2/3 55/2/3 68/2/3
f 70/2/3 57/2/3 56/2/3
f 70/3/3 56/3/3 69/3/3
f 71/3/3 61/3/3 60/3/3
f 71/2/3 57/2/3 70/2/3
f 71/3/3 60/3/3 59/3/3
f 71/3/3 58/3/3 57/3/3
f 71/3/3 63/3/3 62/3/3
f 71/3/3 62/3/3 61/3/3
f 71/3/3 59/3/3 58/3/3
f 72/3/3 63/3/3 71/3/3
f 73/3/3 63/3/3 72/3/3
f 74/3/3 63/3/3 73/3/3
f 75/3/3 63/3/3 74/3/3
f 76/3/3 63/3/3 75/3/3
f 77/3/3 63/3/3 76/3/3
f 78/3/3 63/3/3 77/3/3
f 79/3/3 63/3/3 78/3/3
f 80/2/3 47/2/3 63/2/3
f 80/3/3 63/3/3 79/3/3
f 81/3/3 49/3/3 48/3/3
f 81/2/3 47/2/3 80/2/3
f 81/3/3 48/3/3 47/3/3
f 82/2/3 50/2/3 49/2/3
f 82/3/3 49/3/3 81/3/3
f 83/3/3 64/3/3 50/3/3
f 83/2/3 50/2/3 82/2/3
f 84/2/3 65/2/3 64/2/3
f 84/3/3 64/3/3 83/3/3
f 85/3/3 66/3/3 65/3/3
f 85/2/3 65/2/3 84/2/3
f 86/3/3 53/3/3 66/3/3
f 86/3/3 66/3/3 85/3/3
f 87/3/3 68/3/3 67/3/3
f 88/2/3 70/2/3 69/2/3
f 88/3/3 68/3/3 87/3/3
f 88/2/3 69/2/3 68/2/3
f 89/2/3 70/2/3 88/2/3
f 90/3/3 71/3/3 70/3/3
f 90/2/3 70/2/3 89/2/3
f 91/2/3 72/2/3 71/2/3
f 91/3/3 71/3/3 90/3/3
f 92/3/3 73/3/3 72/3/3
f 92/2/3 72/2/3 91/2/3
f 93/2/3 74/2/3 73/2/3
f 93/3/3 73/3/3 92/3/3
f 94/3/3 75/3/3 74/3/3
f 94/2/3 74/2/3 93/2/3
f 95/2/3 76/2/3 75/2/3
f 95/3/3 75/3/3 94/3/3
f 96/3/3 77/3/3 76/3/3
f 96/2/3 76/2/3 95/2/3
f 97/2/3 78/2/3 77/2/3
f 97/3/3 77/3/3 96/3/3
f 98/3/3 79/3/3 78/3/3
f 98/2/3 78/2/3 97/2/3
f 99/2/3 82/2/3 81/2/3
f 99/3/3 79/3/3 98/3/3
f 99/2/3 83/2/3 82/2/3
f 99/2/3 80/2/3 79/2/3
f 99/2/3 81/2/3 80/2/3
f 99/2/3 86/2/3 85/2/3
f 99/2/3 85/2/3 84/2/3
f 99/2/3 84/2/3 83/2/3
f 100/2/3 86/2/3 99/2/3
f 101/2/3 86/2/3 100/2/3
f 102/2/3 86/2/3 101/2/3
f 103/2/3 86/2/3 102/2/3
f 104/2/3 86/2/3 103/2/3
f 105/2/3 86/2/3 104/2/3
f 106/3/3 53/3/3 86/3/3
f 106/2/3 86/2/3 105/2/3
f 107/2/3 88/2/3 87/2/3
f 107/2/3 89/2/3 88/2/3
f 108/3/3 90/3/3 89/3/3
f 108/2/3 89/2/3 107/2/3
f 109/2/3 91/2/3 90/2/3
f 109/3/3 90/3/3 108/3/3
f 110/3/3 98/3/3 97/3/3
f 110/2/3 91/2/3 109/2/3
f 110/3/3 95/3/3 94/3/3
f 110/3/3 94/3/3 93/3/3
f 110/3/3 93/3/3 92/3/3
f 110/3/3 97/3/3 96/3/3
f 110/3/3 92/3/3 91/3/3
f 110/3/3 100/3/3 99/3/3
f 110/3/3 99/3/3 98/3/3
f 110/3/3 96/3/3 95/3/3
f 111/3/3 100/3/3 110/3/3
f 112/3/3 100/3/3 111/3/3
f 113/3/3 100/3/3 112/3/3
f 114/3/3 100/3/3 113/3/3
f 115/3/3 100/3/3 114/3/3
f 116/2/3 101/2/3 100/2/3
f 116/3/3 100/3/3 115/3/3
f 117/3/3 104/3/3 103/3/3
f 117/2/3 105/2/3 104/2/3
f 118/3/3 106/3/3 105/3/3
f 118/2/3 105/2/3 117/2/3
f 119/3/3 53/3/3 106/3/3
f 119/3/3 106/3/3 118/3/3
f 120/2/3 107/2/3 87/2/3
f 120/3/3 108/3/3 107/3/3
f 121/2/3 109/2/3 108/2/3
f 121/3/3 108/3/3 120/3/3
f 122/3/3 110/3/3 109/3/3
f 122/2/3 109/2/3 121/2/3
f 122/3/3 111/3/3 110/3/3
f 123/3/3 111/3/3 122/3/3
f 124/2/3 101/2/3 116/2/3
f 124/2/3 116/2/3 115/2/3
f 125/3/3 102/3/3 101/3/3
f 125/2/3 101/2/3 124/2/3
f 126/3/3 102/3/3 125/3/3
f 127/2/3 103/2/3 102/2/3
f 127/3/3 102/3/3 126/3/3
f 128/3/3 118/3/3 117/3/3
f 128/2/3 103/2/3 127/2/3
f 128/3/3 117/3/3 103/3/3
f 129/2/3 119/2/3 118/2/3
f 129/3/3 118/3/3 128/3/3
f 130/3/3 53/3/3 119/3/3
f 130/2/3 119/2/3 129/2/3
f 131/3/3 16/3/3 53/3/3
f 131/3/3 53/3/3 130/3/3
f 132/2/3 120/2/3 87/2/3
f 132/2/3 121/2/3 120/2/3
f 133/2/3 121/2/3 132/2/3
f 134/2/3 123/2/3 122/2/3
f 134/3/3 122/3/3 121/3/3
f 135/3/3 111/3/3 123/3/3
f 135/2/3 123/2/3 134/2/3
f 136/3/3 111/3/3 135/3/3
f 137/2/3 114/2/3 113/2/3
f 137/3/3 113/3/3 112/3/3
f 138/3/3 115/3/3 114/3/3
f 138/2/3 114/2/3 137/2/3
f 139/2/3 126/2/3 125/2/3
f 139/3/3 125/3/3 124/3/3
f 140/3/3 127/3/3 126/3/3
f 140/2/3 126/2/3 139/2/3
f 140/3/3 129/3/3 128/3/3
f 140/3/3 128/3/3 127/3/3
f 141/2/3 121/2/3 133/2/3
f 141/3/3 133/3/3 132/3/3
f 142/3/3 134/3/3 121/3/3
f 142/2/3 121/2/3 141/2/3
f 142/3/3 135/3/3 134/3/3
f 143/3/3 135/3/3 142/3/3
f 144/2/3 136/2/3 135/2/3
f 144/3/3 135/3/3 143/3/3
f 145/3/3 111/3/3 136/3/3
f 145/2/3 136/2/3 144/2/3
f 146/3/3 111/3/3 145/3/3
f 147/2/3 112/2/3 111/2/3
f 147/3/3 111/3/3 146/3/3
f 148/3/3 137/3/3 112/3/3
f 148/2/3 112/2/3 147/2/3
f 148/3/3 138/3/3 137/3/3
f 149/3/3 115/3/3 138/3/3
f 149/3/3 138/3/3 148/3/3
f 149/2/3 124/2/3 115/2/3
f 150/3/3 139/3/3 124/3/3
f 150/2/3 124/2/3 149/2/3
f 150/3/3 140/3/3 139/3/3
f 151/1/3 130/1/3 129/1/3
f 151/3/3 140/3/3 150/3/3
f 151/3/3 129/3/3 140/3/3
f 151/1/3 131/1/3 130/1/3
f 152/3/3 16/3/3 131/3/3
f 152/1/3 131/1/3 151/1/3
f 153/3/3 142/3/3 141/3/3
f 153/2/3 143/2/3 142/2/3
f 154/3/3 146/3/3 145/3/3
f 154/2/3 143/2/3 153/2/3
f 154/3/3 145/3/3 144/3/3
f 154/3/3 144/3/3 143/3/3
f 155/2/3 147/2/3 146/2/3
f 155/3/3 146/3/3 154/3/3
f 156/3/3 150/3/3 149/3/3
f 156/2/3 147/2/3 155/2/3
f 156/3/3 151/3/3 150/3/3
f 156/3/3 149/3/3 148/3/3
f 156/3/3 152/3/3 151/3/3
f 156/3/3 148/3/3 147/3/3
f 157/3/3 155/3/3 154/3/3
f 157/3/3 141/3/3 132/3/3
f 157/3/3 156/3/3 155/3/3
f 157/3/3 153/3/3 141/3/3
f 157/3/3 154/3/3 153/3/3
f 158/3/3 152/3/3 156/3/3
f 158/3/3 156/3/3 157/3/3
f 158/3/3 16/3/3 152/3/3
f 159/2/4 160/2/4 162/2/4
f 160/3/4 161/3/4 163/3/4
f 162/2/4 160/2/4 163/2/4
f 162/3/4 163/3/4 164/3/4
f 163/3/4 161/3/4 164/3/4
f 164/3/4 161/3/4 165/3/4
f 165/3/4 161/3/4 166/3/4
f 166/3/4 161/3/4 167/3/4
f 162/3/4 164/3/4 168/3/4
f 164/2/4 165/2/4 168/2/4
f 165/3/4 166/3/4 169/3/4
f 168/2/4 165/2/4 169/2/4
f 169/3/4 166/3/4 170/3/4
f 168/3/4 169/3/4 171/3/4
f 169/2/4 170/2/4 171/2/4
f 170/3/4 166/3/4 172/3/4
f 171/2/4 170/2/4 172/2/4
f 172/3/4 166/3/4 173/3/4
f 166/2/4 167/2/4 174/2/4
f 173/3/4 166/3/4 174/3/4
f 167/3/4 161/3/4 175/3/4
f 174/2/4 167/2/4 175/2/4
f 172/3/4 173/3/4 176/3/4
f 162/3/4 168/3/4 176/3/4
f 168/3/4 171/3/4 176/3/4
f 171/3/4 172/3/4 176/3/4
f 176/3/4 173/3/4 177/3/4
f 173/2/4 174/2/4 178/2/4
f 177/3/4 173/3/4 178/3/4
f 174/3/4 175/3/4 179/3/4
f 178/2/4 174/2/4 179/2/4
f 162/3/4 176/3/4 180/3/4
f 176/2/4 177/2/4 181/2/4
f 180/3/4 176/3/4 181/3/4
f 177/3/4 178/3/4 182/3/4
f 181/2/4 177/2/4 182/2/4
f 178/3/4 179/3/4 182/3/4
f 182/3/4 179/3/4 183/3/4
f 183/3/4 179/3/4 184/3/4
f 184/3/4 179/3/4 185/3/4
f 185/3/4 179/3/4 186/3/4
f 186/3/4 179/3/4 187/3/4
f 187/3/4 179/3/4 188/3/4
f 188/3/4 179/3/4 189/3/4
f 189/3/4 179/3/4 190/3/4
f 180/2/4 181/2/4 191/2/4
f 181/3/4 182/3/4 192/3/4
f 191/2/4 181/2/4 192/2/4
f 182/3/4 183/3/4 192/3/4
f 192/3/4 183/3/4 193/3/4
f 183/2/4 184/2/4 194/2/4
f 193/3/4 183/3/4 194/3/4
f 184/3/4 185/3/4 195/3/4
f 194/2/4 184/2/4 195/2/4
f 185/2/4 186/2/4 196/2/4
f 195/3/4 185/3/4 196/3/4
f 186/3/4 187/3/4 197/3/4
f 196/2/4 186/2/4 197/2/4
f 187/2/4 188/2/4 198/2/4
f 197/3/4 187/3/4 198/3/4
f 188/3/4 189/3/4 199/3/4
f 198/2/4 188/2/4 199/2/4
f 189/2/4 190/2/4 200/2/4
f 199/3/4 189/3/4 200/3/4
f 190/3/4 179/3/4 201/3/4
f 200/2/4 190/2/4 201/2/4
f 192/2/4 193/2/4 202/2/4
f 191/3/4 192/3/4 202/3/4
f 199/3/4 200/3/4 203/3/4
f 202/2/4 193/2/4 203/2/4
f 198/3/4 199/3/4 203/3/4
f 200/3/4 201/3/4 203/3/4
f 197/3/4 198/3/4 203/3/4
f 196/3/4 197/3/4 203/3/4
f 195/3/4 196/3/4 203/3/4
f 194/3/4 195/3/4 203/3/4
f 193/3/4 194/3/4 203/3/4
f 201/3/4 179/3/4 204/3/4
f 203/3/4 201/3/4 204/3/4
f 179/3/4 175/3/4 205/3/4
f 204/3/4 179/3/4 205/3/4
f 203/3/4 204/3/4 206/3/4
f 202/3/4 203/3/4 206/3/4
f 206/3/4 204/3/4 207/3/4
f 204/2/4 205/2/4 208/2/4
f 207/3/4 204/3/4 208/3/4
f 205/3/4 175/3/4 209/3/4
f 208/2/4 205/2/4 209/2/4
f 175/3/4 161/3/4 210/3/4
f 209/3/4 175/3/4 210/3/4
f 202/3/4 206/3/4 211/3/4
f 206/2/4 207/2/4 212/2/4
f 211/3/4 206/3/4 212/3/4
f 208/3/4 209/3/4 213/3/4
f 212/2/4 207/2/4 213/2/4
f 207/3/4 208/3/4 213/3/4
f 211/2/4 212/2/4 214/2/4
f 202/3/4 211/3/4 214/3/4
f 212/3/4 213/3/4 215/3/4
f 214/2/4 212/2/4 215/2/4
f 213/3/4 209/3/4 216/3/4
f 215/3/4 213/3/4 216/3/4
f 209/2/4 210/2/4 216/2/4
f 210/3/4 161/3/4 217/3/4
f 216/2/4 210/2/4 217/2/4
f 214/3/4 215/3/4 218/3/4
f 191/3/4 202/3/4 218/3/4
f 216/3/4 217/3/4 218/3/4
f 202/3/4 214/3/4 218/3/4
f 215/3/4 216/3/4 218/3/4
f 218/3/4 217/3/4 219/3/4
f 218/2/4 219/2/4 220/2/4
f 219/3/4 217/3/4 221/3/4
f 220/2/4 219/2/4 221/2/4
f 217/3/4 161/3/4 222/3/4
f 221/3/4 217/3/4 222/3/4
f 229/3/5 224/3/5 223/3/5
f 229/2/5 225/2/5 224/2/5
f 230/3/5 226/3/5 225/3/5
f 230/2/5 225/2/5 229/2/5
f 231/2/5 227/2/5 226/2/5
f 231/3/5 226/3/5 230/3/5
f 232/3/5 228/3/5 227/3/5
f 232/2/5 227/2/5 231/2/5
f 233/3/5 231/3/5 230/3/5
f 233/3/5 230/3/5 229/3/5
f 233/3/5 232/3/5 231/3/5
f 233/3/5 229/3/5 223/3/5
f 234/3/5 232/3/5 233/3/5
f 235/3/5 232/3/5 234/3/5
f 236/3/5 232/3/5 235/3/5
f 237/3/5 228/3/5 232/3/5
f 237/3/5 232/3/5 236/3/5
f 238/3/5 228/3/5 237/3/5
f 239/2/5 234/2/5 233/2/5
f 240/3/5 235/3/5 234/3/5
f 240/2/5 234/2/5 239/2/5
f 241/2/5 236/2/5 235/2/5
f 241/3/5 235/3/5 240/3/5
f 242/3/5 237/3/5 236/3/5
f 242/2/5 236/2/5 241/2/5
f 243/2/5 238/2/5 237/2/5
f 243/3/5 237/3/5 242/3/5
f 244/2/5 238/2/5 243/2/5
f 245/3/6 246/3/6 247/3/6
f 247/3/6 246/3/6 248/3/6
