# MagicaVoxel @ Ephtracy

# group
g torso_male_01

# material
mtllib torso_male_01.mtl
usemtl palette

# normals
vn -1 0 0
vn 1 0 0
vn 0 0 1
vn 0 0 -1
vn 0 -1 0
vn 0 1 0

# texcoords
vt 0.271484 0.5
vt 0.287109 0.5
vt 0.310547 0.5
vt 0.412109 0.5

# verts
v -14 20 8
v -14 20 -8
v -14 29 8
v -14 29 7
v -14 30 7
v -14 30 -8
v -13 0 7
v -13 0 -8
v -13 17 8
v -13 17 7
v -13 20 8
v -13 20 -8
v -11 30 6
v -11 30 -8
v -11 31 6
v -11 31 -8
v -6 31 5
v -6 31 -7
v -6 32 5
v -6 32 -7
v 6 31 5
v 6 31 -7
v 6 32 5
v 6 32 -7
v 12 30 6
v 12 30 -8
v 12 31 6
v 12 31 -8
v 13 0 7
v 13 0 -8
v 13 17 8
v 13 17 7
v 13 20 8
v 13 20 -8
v 14 20 8
v 14 20 -8
v 14 29 8
v 14 29 7
v 14 30 7
v 14 30 -8
v -14 20 8
v -14 29 8
v -13 17 8
v -13 20 8
v -7 28 8
v -7 29 8
v -5 28 8
v -5 29 8
v -3 18 8
v -3 19 8
v -3 23 8
v -3 24 8
v -3 28 8
v -3 29 8
v -1 18 8
v -1 19 8
v -1 23 8
v -1 24 8
v -1 27 8
v -1 28 8
v 0 17 8
v 0 27 8
v 1 17 8
v 1 27 8
v 1 28 8
v 3 18 8
v 3 21 8
v 3 28 8
v 3 29 8
v 4 19 8
v 4 20 8
v 5 28 8
v 5 29 8
v 7 28 8
v 7 29 8
v 10 17 8
v 10 18 8
v 10 19 8
v 10 20 8
v 11 17 8
v 11 21 8
v 13 17 8
v 13 20 8
v 14 20 8
v 14 29 8
v -14 29 7
v -14 30 7
v -13 0 7
v -13 17 7
v -7 29 7
v -7 30 7
v -5 29 7
v -3 3 7
v -3 4 7
v -3 8 7
v -3 9 7
v -3 13 7
v -3 14 7
v -3 29 7
v -2 29 7
v -2 30 7
v -1 3 7
v -1 4 7
v -1 8 7
v -1 9 7
v -1 13 7
v -1 14 7
v 0 0 7
v 0 17 7
v 1 0 7
v 1 17 7
v 2 29 7
v 2 30 7
v 3 11 7
v 3 17 7
v 3 29 7
v 4 10 7
v 4 11 7
v 4 17 7
v 5 9 7
v 5 10 7
v 5 11 7
v 5 29 7
v 6 8 7
v 6 9 7
v 6 10 7
v 7 29 7
v 7 30 7
v 8 8 7
v 8 9 7
v 8 10 7
v 9 9 7
v 9 10 7
v 9 11 7
v 10 10 7
v 10 11 7
v 10 17 7
v 11 11 7
v 11 17 7
v 13 0 7
v 13 17 7
v 14 29 7
v 14 30 7
v -11 30 6
v -11 31 6
v -7 30 6
v -7 31 6
v -3 30 6
v -3 31 6
v -2 30 6
v 2 30 6
v 3 30 6
v 3 31 6
v 7 30 6
v 7 31 6
v 12 30 6
v 12 31 6
v -6 31 5
v -6 32 5
v -3 31 5
v 3 31 5
v 6 31 5
v 6 32 5
v -6 31 -7
v -6 32 -7
v 6 31 -7
v 6 32 -7
v -14 20 -8
v -14 30 -8
v -13 0 -8
v -13 20 -8
v -11 30 -8
v -11 31 -8
v -7 30 -8
v -7 31 -8
v 7 30 -8
v 7 31 -8
v 12 30 -8
v 12 31 -8
v 13 0 -8
v 13 20 -8
v 14 20 -8
v 14 30 -8
v -13 0 7
v 0 0 7
v 1 0 7
v 13 0 7
v 0 0 6
v 1 0 6
v -13 0 -8
v 13 0 -8
v -13 17 8
v 0 17 8
v 1 17 8
v 10 17 8
v 11 17 8
v 13 17 8
v -13 17 7
v 0 17 7
v 1 17 7
v 3 17 7
v 4 17 7
v 10 17 7
v 11 17 7
v 13 17 7
v -14 20 8
v -13 20 8
v 13 20 8
v 14 20 8
v -14 20 -8
v -13 20 -8
v 13 20 -8
v 14 20 -8
v -14 29 8
v -7 29 8
v -5 29 8
v -3 29 8
v 3 29 8
v 5 29 8
v 7 29 8
v 14 29 8
v -14 29 7
v -7 29 7
v -5 29 7
v -3 29 7
v -2 29 7
v 2 29 7
v 3 29 7
v 5 29 7
v 7 29 7
v 14 29 7
v -14 30 7
v -7 30 7
v -2 30 7
v 2 30 7
v 7 30 7
v 14 30 7
v -11 30 6
v -7 30 6
v -3 30 6
v -2 30 6
v 2 30 6
v 3 30 6
v 7 30 6
v 12 30 6
v -14 30 -8
v -11 30 -8
v 12 30 -8
v 14 30 -8
v -11 31 6
v -7 31 6
v -3 31 6
v 3 31 6
v 7 31 6
v 12 31 6
v -6 31 5
v -3 31 5
v 3 31 5
v 6 31 5
v -6 31 -7
v 6 31 -7
v -11 31 -8
v -7 31 -8
v 7 31 -8
v 12 31 -8
v -6 32 5
v 6 32 5
v -6 32 -7
v 6 32 -7

# faces
f 3/1/1 2/1/1 1/1/1
f 4/1/1 2/1/1 3/1/1
f 5/1/1 2/1/1 4/1/1
f 6/1/1 2/1/1 5/1/1
f 10/1/1 8/1/1 7/1/1
f 11/1/1 10/1/1 9/1/1
f 12/1/1 8/1/1 10/1/1
f 12/1/1 10/1/1 11/1/1
f 15/1/1 14/1/1 13/1/1
f 16/1/1 14/1/1 15/1/1
f 19/2/1 18/2/1 17/2/1
f 20/2/1 18/2/1 19/2/1
f 21/2/2 22/2/2 23/2/2
f 23/2/2 22/2/2 24/2/2
f 25/1/2 26/1/2 27/1/2
f 27/1/2 26/1/2 28/1/2
f 29/1/2 30/1/2 32/1/2
f 31/1/2 32/1/2 33/1/2
f 32/1/2 30/1/2 34/1/2
f 33/1/2 32/1/2 34/1/2
f 35/1/2 36/1/2 37/1/2
f 37/1/2 36/1/2 38/1/2
f 38/1/2 36/1/2 39/1/2
f 39/1/2 36/1/2 40/1/2
f 44/1/3 42/1/3 41/1/3
f 45/1/3 42/1/3 44/1/3
f 45/1/3 44/1/3 43/1/3
f 46/1/3 42/1/3 45/1/3
f 47/1/3 45/1/3 43/1/3
f 47/4/3 46/4/3 45/4/3
f 48/4/3 46/4/3 47/4/3
f 49/1/3 47/1/3 43/1/3
f 49/1/3 48/1/3 47/1/3
f 50/1/3 48/1/3 49/1/3
f 51/1/3 48/1/3 50/1/3
f 52/1/3 48/1/3 51/1/3
f 53/1/3 48/1/3 52/1/3
f 54/1/3 48/1/3 53/1/3
f 55/1/3 49/1/3 43/1/3
f 55/3/3 50/3/3 49/3/3
f 56/1/3 51/1/3 50/1/3
f 56/3/3 50/3/3 55/3/3
f 57/3/3 52/3/3 51/3/3
f 57/1/3 51/1/3 56/1/3
f 58/1/3 53/1/3 52/1/3
f 58/3/3 52/3/3 57/3/3
f 59/1/3 53/1/3 58/1/3
f 60/4/3 54/4/3 53/4/3
f 60/1/3 53/1/3 59/1/3
f 61/1/3 59/1/3 58/1/3
f 61/1/3 55/1/3 43/1/3
f 61/1/3 56/1/3 55/1/3
f 61/1/3 58/1/3 57/1/3
f 61/1/3 57/1/3 56/1/3
f 62/4/3 60/4/3 59/4/3
f 62/1/3 59/1/3 61/1/3
f 63/3/3 62/3/3 61/3/3
f 64/4/3 60/4/3 62/4/3
f 64/3/3 62/3/3 63/3/3
f 65/4/3 54/4/3 60/4/3
f 65/4/3 60/4/3 64/4/3
f 66/1/3 64/1/3 63/1/3
f 66/1/3 65/1/3 64/1/3
f 67/1/3 65/1/3 66/1/3
f 68/4/3 54/4/3 65/4/3
f 68/1/3 65/1/3 67/1/3
f 69/4/3 54/4/3 68/4/3
f 70/3/3 67/3/3 66/3/3
f 71/3/3 67/3/3 70/3/3
f 72/1/3 68/1/3 67/1/3
f 72/1/3 69/1/3 68/1/3
f 73/1/3 69/1/3 72/1/3
f 74/1/3 72/1/3 67/1/3
f 74/4/3 73/4/3 72/4/3
f 75/4/3 73/4/3 74/4/3
f 76/1/3 66/1/3 63/1/3
f 77/3/3 70/3/3 66/3/3
f 77/1/3 66/1/3 76/1/3
f 78/1/3 71/1/3 70/1/3
f 78/3/3 70/3/3 77/3/3
f 79/3/3 67/3/3 71/3/3
f 79/1/3 71/1/3 78/1/3
f 80/3/3 78/3/3 77/3/3
f 80/3/3 77/3/3 76/3/3
f 80/3/3 79/3/3 78/3/3
f 81/3/3 67/3/3 79/3/3
f 81/3/3 79/3/3 80/3/3
f 81/1/3 75/1/3 74/1/3
f 81/1/3 74/1/3 67/1/3
f 82/1/3 81/1/3 80/1/3
f 83/1/3 81/1/3 82/1/3
f 84/1/3 81/1/3 83/1/3
f 85/1/3 75/1/3 81/1/3
f 85/1/3 81/1/3 84/1/3
f 90/1/3 87/1/3 86/1/3
f 91/1/3 87/1/3 90/1/3
f 92/4/3 91/4/3 90/4/3
f 93/1/3 89/1/3 88/1/3
f 94/1/3 89/1/3 93/1/3
f 95/1/3 89/1/3 94/1/3
f 96/1/3 89/1/3 95/1/3
f 97/1/3 89/1/3 96/1/3
f 98/1/3 89/1/3 97/1/3
f 99/4/3 91/4/3 92/4/3
f 100/4/3 91/4/3 99/4/3
f 101/4/3 91/4/3 100/4/3
f 102/1/3 93/1/3 88/1/3
f 102/3/3 94/3/3 93/3/3
f 103/1/3 95/1/3 94/1/3
f 103/3/3 94/3/3 102/3/3
f 104/3/3 96/3/3 95/3/3
f 104/1/3 95/1/3 103/1/3
f 105/1/3 97/1/3 96/1/3
f 105/3/3 96/3/3 104/3/3
f 106/3/3 98/3/3 97/3/3
f 106/1/3 97/1/3 105/1/3
f 107/1/3 89/1/3 98/1/3
f 107/3/3 98/3/3 106/3/3
f 108/1/3 106/1/3 105/1/3
f 108/1/3 102/1/3 88/1/3
f 108/1/3 107/1/3 106/1/3
f 108/1/3 103/1/3 102/1/3
f 108/1/3 104/1/3 103/1/3
f 108/1/3 105/1/3 104/1/3
f 109/1/3 89/1/3 107/1/3
f 109/1/3 107/1/3 108/1/3
f 110/3/3 109/3/3 108/3/3
f 111/3/3 109/3/3 110/3/3
f 112/2/3 101/2/3 100/2/3
f 113/2/3 101/2/3 112/2/3
f 114/1/3 111/1/3 110/1/3
f 115/1/3 111/1/3 114/1/3
f 116/4/3 113/4/3 112/4/3
f 117/1/3 114/1/3 110/1/3
f 118/3/3 115/3/3 114/3/3
f 118/1/3 114/1/3 117/1/3
f 119/3/3 115/3/3 118/3/3
f 120/1/3 117/1/3 110/1/3
f 121/3/3 118/3/3 117/3/3
f 121/1/3 117/1/3 120/1/3
f 122/1/3 119/1/3 118/1/3
f 122/3/3 118/3/3 121/3/3
f 123/4/3 113/4/3 116/4/3
f 124/1/3 120/1/3 110/1/3
f 125/3/3 121/3/3 120/3/3
f 125/1/3 120/1/3 124/1/3
f 126/1/3 122/1/3 121/1/3
f 126/3/3 121/3/3 125/3/3
f 127/4/3 113/4/3 123/4/3
f 128/4/3 113/4/3 127/4/3
f 129/3/3 125/3/3 124/3/3
f 129/1/3 124/1/3 110/1/3
f 130/1/3 126/1/3 125/1/3
f 130/3/3 125/3/3 129/3/3
f 131/1/3 122/1/3 126/1/3
f 131/1/3 126/1/3 130/1/3
f 132/1/3 130/1/3 129/1/3
f 132/3/3 131/3/3 130/3/3
f 133/1/3 122/1/3 131/1/3
f 133/3/3 131/3/3 132/3/3
f 134/1/3 119/1/3 122/1/3
f 134/1/3 122/1/3 133/1/3
f 135/1/3 133/1/3 132/1/3
f 135/3/3 134/3/3 133/3/3
f 136/1/3 119/1/3 134/1/3
f 136/3/3 134/3/3 135/3/3
f 137/1/3 119/1/3 136/1/3
f 138/1/3 136/1/3 135/1/3
f 138/3/3 137/3/3 136/3/3
f 139/3/3 137/3/3 138/3/3
f 140/1/3 135/1/3 132/1/3
f 140/1/3 132/1/3 129/1/3
f 140/1/3 139/1/3 138/1/3
f 140/1/3 138/1/3 135/1/3
f 140/1/3 129/1/3 110/1/3
f 141/1/3 139/1/3 140/1/3
f 142/1/3 128/1/3 127/1/3
f 143/1/3 128/1/3 142/1/3
f 146/1/3 145/1/3 144/1/3
f 147/1/3 145/1/3 146/1/3
f 148/4/3 147/4/3 146/4/3
f 149/4/3 147/4/3 148/4/3
f 150/2/3 149/2/3 148/2/3
f 151/2/3 149/2/3 150/2/3
f 152/2/3 149/2/3 151/2/3
f 153/2/3 149/2/3 152/2/3
f 154/4/3 153/4/3 152/4/3
f 155/4/3 153/4/3 154/4/3
f 156/1/3 155/1/3 154/1/3
f 157/1/3 155/1/3 156/1/3
f 160/2/3 159/2/3 158/2/3
f 161/2/3 159/2/3 160/2/3
f 162/2/3 159/2/3 161/2/3
f 163/2/3 159/2/3 162/2/3
f 164/2/4 165/2/4 166/2/4
f 166/2/4 165/2/4 167/2/4
f 168/1/4 169/1/4 171/1/4
f 171/1/4 169/1/4 172/1/4
f 170/1/4 171/1/4 172/1/4
f 170/1/4 172/1/4 174/1/4
f 172/1/4 173/1/4 174/1/4
f 174/1/4 173/1/4 175/1/4
f 170/1/4 174/1/4 176/1/4
f 174/4/4 175/4/4 176/4/4
f 176/4/4 175/4/4 177/4/4
f 170/1/4 176/1/4 178/1/4
f 176/1/4 177/1/4 178/1/4
f 178/1/4 177/1/4 179/1/4
f 170/1/4 178/1/4 180/1/4
f 180/1/4 178/1/4 181/1/4
f 181/1/4 178/1/4 182/1/4
f 182/1/4 178/1/4 183/1/4
f 188/1/5 185/1/5 184/1/5
f 188/3/5 186/3/5 185/3/5
f 189/1/5 187/1/5 186/1/5
f 189/3/5 186/3/5 188/3/5
f 190/1/5 188/1/5 184/1/5
f 190/1/5 189/1/5 188/1/5
f 191/1/5 187/1/5 189/1/5
f 191/1/5 189/1/5 190/1/5
f 198/1/5 193/1/5 192/1/5
f 199/3/5 194/3/5 193/3/5
f 199/1/5 193/1/5 198/1/5
f 200/1/5 195/1/5 194/1/5
f 200/3/5 194/3/5 199/3/5
f 201/1/5 195/1/5 200/1/5
f 202/1/5 195/1/5 201/1/5
f 203/3/5 196/3/5 195/3/5
f 203/1/5 195/1/5 202/1/5
f 204/1/5 197/1/5 196/1/5
f 204/3/5 196/3/5 203/3/5
f 205/1/5 197/1/5 204/1/5
f 210/1/5 207/1/5 206/1/5
f 211/1/5 207/1/5 210/1/5
f 212/1/5 209/1/5 208/1/5
f 213/1/5 209/1/5 212/1/5
f 214/1/6 215/1/6 222/1/6
f 215/4/6 216/4/6 223/4/6
f 222/1/6 215/1/6 223/1/6
f 216/1/6 217/1/6 224/1/6
f 223/4/6 216/4/6 224/4/6
f 217/4/6 218/4/6 225/4/6
f 224/1/6 217/1/6 225/1/6
f 225/4/6 218/4/6 226/4/6
f 226/4/6 218/4/6 227/4/6
f 218/1/6 219/1/6 228/1/6
f 227/4/6 218/4/6 228/4/6
f 219/4/6 220/4/6 229/4/6
f 228/1/6 219/1/6 229/1/6
f 220/1/6 221/1/6 230/1/6
f 229/4/6 220/4/6 230/4/6
f 230/1/6 221/1/6 231/1/6
f 232/1/6 233/1/6 238/1/6
f 233/4/6 234/4/6 239/4/6
f 238/1/6 233/1/6 239/1/6
f 239/4/6 234/4/6 240/4/6
f 234/2/6 235/2/6 241/2/6
f 240/4/6 234/4/6 241/4/6
f 235/4/6 236/4/6 242/4/6
f 241/2/6 235/2/6 242/2/6
f 242/4/6 236/4/6 243/4/6
f 236/1/6 237/1/6 244/1/6
f 243/4/6 236/4/6 244/4/6
f 244/1/6 237/1/6 245/1/6
f 232/1/6 238/1/6 246/1/6
f 246/1/6 238/1/6 247/1/6
f 245/1/6 237/1/6 248/1/6
f 248/1/6 237/1/6 249/1/6
f 251/4/6 252/4/6 256/4/6
f 252/2/6 253/2/6 257/2/6
f 256/4/6 252/4/6 257/4/6
f 253/4/6 254/4/6 258/4/6
f 257/2/6 253/2/6 258/2/6
f 258/4/6 254/4/6 259/4/6
f 251/4/6 256/4/6 260/4/6
f 259/4/6 254/4/6 261/4/6
f 250/1/6 251/1/6 262/1/6
f 260/4/6 261/4/6 263/4/6
f 262/1/6 251/1/6 263/1/6
f 251/4/6 260/4/6 263/4/6
f 254/1/6 255/1/6 264/1/6
f 263/4/6 261/4/6 264/4/6
f 261/4/6 254/4/6 264/4/6
f 264/1/6 255/1/6 265/1/6
f 266/2/6 267/2/6 268/2/6
f 268/2/6 267/2/6 269/2/6
