# MagicaVoxel @ Ephtracy

# group
g knife01

# material
mtllib knife01.mtl
usemtl palette

# normals
vn -1 0 0
vn 1 0 0
vn 0 0 1
vn 0 0 -1
vn 0 -1 0
vn 0 1 0

# texcoords
vt 0.224609 0.5
vt 0.255859 0.5
vt 0.283203 0.5
vt 0.720703 0.5
vt 0.923828 0.5
vt 0.962891 0.5

# verts
v -10.5 1 1
v -10.5 1 -0
v -10.5 1 -1
v -10.5 2 1
v -10.5 2 -0
v -10.5 2 -1
v -9.5 1 2
v -9.5 1 1
v -9.5 1 -1
v -9.5 1 -2
v -9.5 2 2
v -9.5 2 1
v -9.5 2 -1
v -9.5 2 -2
v -7.5 1 4
v -7.5 1 3
v -7.5 1 -3
v -7.5 1 -4
v -7.5 2 4
v -7.5 2 3
v -7.5 2 -3
v -7.5 2 -4
v -6.5 0 4
v -6.5 0 3
v -6.5 0 2
v -6.5 0 -1
v -6.5 0 -2
v -6.5 0 -3
v -6.5 0 -4
v -6.5 1 5
v -6.5 1 4
v -6.5 1 3
v -6.5 1 2
v -6.5 1 1
v -6.5 1 -0
v -6.5 1 -1
v -6.5 1 -2
v -6.5 1 -3
v -6.5 1 -4
v -6.5 1 -5
v -6.5 2 5
v -6.5 2 4
v -6.5 2 3
v -6.5 2 2
v -6.5 2 1
v -6.5 2 -0
v -6.5 2 -1
v -6.5 2 -2
v -6.5 2 -3
v -6.5 2 -4
v -6.5 2 -5
v -6.5 3 4
v -6.5 3 3
v -6.5 3 2
v -6.5 3 -1
v -6.5 3 -2
v -6.5 3 -3
v -6.5 3 -4
v -5.5 0 3
v -5.5 0 2
v -5.5 0 -2
v -5.5 0 -3
v -5.5 1 3
v -5.5 1 2
v -5.5 1 -2
v -5.5 1 -3
v -5.5 2 3
v -5.5 2 2
v -5.5 2 -2
v -5.5 2 -3
v -5.5 3 3
v -5.5 3 2
v -5.5 3 -2
v -5.5 3 -3
v -4.5 0 4
v -4.5 0 3
v -4.5 0 1
v -4.5 0 -0
v -4.5 0 -3
v -4.5 0 -4
v -4.5 1 4
v -4.5 1 3
v -4.5 1 1
v -4.5 1 -0
v -4.5 1 -3
v -4.5 1 -4
v -4.5 2 4
v -4.5 2 3
v -4.5 2 -0
v -4.5 2 -1
v -4.5 2 -2
v -4.5 2 -4
v -4.5 3 4
v -4.5 3 3
v -4.5 3 -0
v -4.5 3 -1
v -4.5 3 -2
v -4.5 3 -4
v -3.5 1 5
v -3.5 1 3
v -3.5 1 -3
v -3.5 1 -5
v -3.5 2 5
v -3.5 2 3
v -3.5 2 -3
v -3.5 2 -5
v 6.5 1 3
v 6.5 1 2
v 6.5 2 3
v 6.5 2 2
v 7.5 1 2
v 7.5 1 1
v 7.5 2 2
v 7.5 2 1
v 8.5 1 1
v 8.5 1 -0
v 8.5 2 1
v 8.5 2 -0
v 9.5 1 -0
v 9.5 1 -1
v 9.5 1 -2
v 9.5 1 -3
v 9.5 2 -0
v 9.5 2 -1
v 9.5 2 -2
v 9.5 2 -3
v 10.5 1 -1
v 10.5 1 -2
v 10.5 2 -1
v 10.5 2 -2
v -6.5 1 5
v -6.5 2 5
v -3.5 1 5
v -3.5 2 5
v -7.5 1 4
v -7.5 2 4
v -6.5 0 4
v -6.5 1 4
v -6.5 2 4
v -6.5 3 4
v -5.5 0 4
v -5.5 1 4
v -5.5 2 4
v -5.5 3 4
v -4.5 0 4
v -4.5 1 4
v -4.5 2 4
v -4.5 3 4
v -3.5 1 3
v -3.5 2 3
v 6.5 1 3
v 6.5 2 3
v -9.5 1 2
v -9.5 2 2
v -6.5 0 2
v -6.5 1 2
v -6.5 2 2
v -6.5 3 2
v -5.5 0 2
v -5.5 1 2
v -5.5 2 2
v -5.5 3 2
v 6.5 1 2
v 6.5 2 2
v 7.5 1 2
v 7.5 2 2
v -10.5 1 1
v -10.5 2 1
v -9.5 1 1
v -9.5 2 1
v 7.5 1 1
v 7.5 2 1
v 8.5 1 1
v 8.5 2 1
v 8.5 1 -0
v 8.5 2 -0
v 9.5 1 -0
v 9.5 2 -0
v 9.5 1 -1
v 9.5 2 -1
v 10.5 1 -1
v 10.5 2 -1
v -7.5 1 -3
v -7.5 2 -3
v -6.5 0 -3
v -6.5 1 -3
v -6.5 2 -3
v -6.5 3 -3
v -5.5 0 -3
v -5.5 1 -3
v -5.5 2 -3
v -5.5 3 -3
v -7.5 1 3
v -7.5 2 3
v -6.5 0 3
v -6.5 1 3
v -6.5 2 3
v -6.5 3 3
v -5.5 0 3
v -5.5 1 3
v -5.5 2 3
v -5.5 3 3
v -10.5 1 -1
v -10.5 2 -1
v -9.5 1 -1
v -9.5 2 -1
v -9.5 1 -2
v -9.5 2 -2
v -8.5 1 -2
v -8.5 2 -2
v -7.5 1 -2
v -7.5 2 -2
v -6.5 0 -2
v -6.5 1 -2
v -6.5 2 -2
v -6.5 3 -2
v -5.5 0 -2
v -5.5 1 -2
v -5.5 2 -2
v -5.5 3 -2
v 9.5 1 -2
v 9.5 2 -2
v 10.5 1 -2
v 10.5 2 -2
v -3.5 1 -3
v -3.5 2 -3
v 9.5 1 -3
v 9.5 2 -3
v -7.5 1 -4
v -7.5 2 -4
v -6.5 0 -4
v -6.5 1 -4
v -6.5 2 -4
v -6.5 3 -4
v -4.5 0 -4
v -4.5 1 -4
v -4.5 2 -4
v -4.5 3 -4
v -6.5 1 -5
v -6.5 2 -5
v -3.5 1 -5
v -3.5 2 -5
v -6.5 0 4
v -5.5 0 4
v -4.5 0 4
v -6.5 0 3
v -5.5 0 3
v -4.5 0 3
v -6.5 0 2
v -5.5 0 2
v -5.5 0 1
v -4.5 0 1
v -5.5 0 -0
v -4.5 0 -0
v -6.5 0 -1
v -5.5 0 -1
v -6.5 0 -2
v -5.5 0 -2
v -6.5 0 -3
v -5.5 0 -3
v -4.5 0 -3
v -6.5 0 -4
v -4.5 0 -4
v -6.5 1 5
v -3.5 1 5
v -7.5 1 4
v -6.5 1 4
v -5.5 1 4
v -4.5 1 4
v -7.5 1 3
v -6.5 1 3
v -5.5 1 3
v -4.5 1 3
v -3.5 1 3
v 6.5 1 3
v -9.5 1 2
v -6.5 1 2
v -5.5 1 2
v -3.5 1 2
v -2.5 1 2
v 6.5 1 2
v 7.5 1 2
v -10.5 1 1
v -9.5 1 1
v -6.5 1 1
v -4.5 1 1
v -1.5 1 1
v -0.5 1 1
v 2.5 1 1
v 4.5 1 1
v 6.5 1 1
v 7.5 1 1
v 8.5 1 1
v -10.5 1 -0
v -9.5 1 -0
v -7.5 1 -0
v -6.5 1 -0
v -4.5 1 -0
v -2.5 1 -0
v -1.5 1 -0
v -0.5 1 -0
v 2.5 1 -0
v 4.5 1 -0
v 7.5 1 -0
v 8.5 1 -0
v 9.5 1 -0
v -10.5 1 -1
v -9.5 1 -1
v -8.5 1 -1
v -7.5 1 -1
v -6.5 1 -1
v -0.5 1 -1
v 0.5 1 -1
v 2.5 1 -1
v 3.5 1 -1
v 5.5 1 -1
v 7.5 1 -1
v 8.5 1 -1
v 9.5 1 -1
v 10.5 1 -1
v -9.5 1 -2
v -8.5 1 -2
v -7.5 1 -2
v -6.5 1 -2
v -5.5 1 -2
v -3.5 1 -2
v -0.5 1 -2
v 0.5 1 -2
v 2.5 1 -2
v 3.5 1 -2
v 5.5 1 -2
v 7.5 1 -2
v 9.5 1 -2
v 10.5 1 -2
v -7.5 1 -3
v -6.5 1 -3
v -5.5 1 -3
v -4.5 1 -3
v -3.5 1 -3
v 9.5 1 -3
v -7.5 1 -4
v -6.5 1 -4
v -4.5 1 -4
v -6.5 1 -5
v -3.5 1 -5
v -6.5 2 5
v -3.5 2 5
v -7.5 2 4
v -6.5 2 4
v -5.5 2 4
v -4.5 2 4
v -7.5 2 3
v -6.5 2 3
v -5.5 2 3
v -4.5 2 3
v -3.5 2 3
v 6.5 2 3
v -9.5 2 2
v -6.5 2 2
v -5.5 2 2
v -3.5 2 2
v -2.5 2 2
v 6.5 2 2
v 7.5 2 2
v -10.5 2 1
v -9.5 2 1
v -6.5 2 1
v -1.5 2 1
v -0.5 2 1
v 2.5 2 1
v 4.5 2 1
v 6.5 2 1
v 7.5 2 1
v 8.5 2 1
v -10.5 2 -0
v -9.5 2 -0
v -7.5 2 -0
v -6.5 2 -0
v -4.5 2 -0
v -2.5 2 -0
v -1.5 2 -0
v -0.5 2 -0
v 2.5 2 -0
v 4.5 2 -0
v 7.5 2 -0
v 8.5 2 -0
v 9.5 2 -0
v -10.5 2 -1
v -9.5 2 -1
v -8.5 2 -1
v -7.5 2 -1
v -6.5 2 -1
v -4.5 2 -1
v -0.5 2 -1
v 0.5 2 -1
v 2.5 2 -1
v 3.5 2 -1
v 5.5 2 -1
v 7.5 2 -1
v 8.5 2 -1
v 9.5 2 -1
v 10.5 2 -1
v -9.5 2 -2
v -8.5 2 -2
v -7.5 2 -2
v -6.5 2 -2
v -5.5 2 -2
v -4.5 2 -2
v -3.5 2 -2
v -0.5 2 -2
v 0.5 2 -2
v 2.5 2 -2
v 3.5 2 -2
v 5.5 2 -2
v 7.5 2 -2
v 9.5 2 -2
v 10.5 2 -2
v -7.5 2 -3
v -6.5 2 -3
v -5.5 2 -3
v -3.5 2 -3
v 9.5 2 -3
v -7.5 2 -4
v -6.5 2 -4
v -4.5 2 -4
v -6.5 2 -5
v -3.5 2 -5
v -6.5 3 4
v -5.5 3 4
v -4.5 3 4
v -6.5 3 3
v -5.5 3 3
v -4.5 3 3
v -6.5 3 2
v -5.5 3 2
v -5.5 3 -0
v -4.5 3 -0
v -6.5 3 -1
v -5.5 3 -1
v -4.5 3 -1
v -6.5 3 -2
v -5.5 3 -2
v -4.5 3 -2
v -6.5 3 -3
v -5.5 3 -3
v -6.5 3 -4
v -4.5 3 -4

# faces
f 4/5/1 2/5/1 1/5/1
f 5/6/1 3/6/1 2/6/1
f 5/5/1 2/5/1 4/5/1
f 6/6/1 3/6/1 5/6/1
f 11/1/1 8/1/1 7/1/1
f 12/1/1 8/1/1 11/1/1
f 13/1/1 10/1/1 9/1/1
f 14/1/1 10/1/1 13/1/1
f 19/1/1 16/1/1 15/1/1
f 20/1/1 16/1/1 19/1/1
f 21/1/1 18/1/1 17/1/1
f 22/1/1 18/1/1 21/1/1
f 31/2/1 24/2/1 23/2/1
f 32/2/1 24/2/1 31/2/1
f 33/2/1 26/2/1 25/2/1
f 34/2/1 26/2/1 33/2/1
f 35/2/1 26/2/1 34/2/1
f 36/3/1 27/3/1 26/3/1
f 36/2/1 26/2/1 35/2/1
f 37/3/1 27/3/1 36/3/1
f 38/3/1 29/3/1 28/3/1
f 39/3/1 29/3/1 38/3/1
f 41/1/1 31/1/1 30/1/1
f 42/1/1 31/1/1 41/1/1
f 43/1/1 33/1/1 32/1/1
f 44/1/1 33/1/1 43/1/1
f 48/1/1 38/1/1 37/1/1
f 49/1/1 38/1/1 48/1/1
f 50/1/1 40/1/1 39/1/1
f 51/1/1 40/1/1 50/1/1
f 52/2/1 43/2/1 42/2/1
f 53/2/1 43/2/1 52/2/1
f 54/2/1 47/2/1 46/2/1
f 54/2/1 45/2/1 44/2/1
f 54/2/1 46/2/1 45/2/1
f 55/3/1 48/3/1 47/3/1
f 55/2/1 47/2/1 54/2/1
f 56/3/1 48/3/1 55/3/1
f 57/3/1 50/3/1 49/3/1
f 58/3/1 50/3/1 57/3/1
f 63/2/1 60/2/1 59/2/1
f 64/2/1 60/2/1 63/2/1
f 65/2/1 62/2/1 61/2/1
f 66/2/1 62/2/1 65/2/1
f 71/2/1 68/2/1 67/2/1
f 72/2/1 68/2/1 71/2/1
f 73/3/1 70/3/1 69/3/1
f 74/3/1 70/3/1 73/3/1
f 75/3/2 76/3/2 81/3/2
f 76/2/2 77/2/2 82/2/2
f 81/3/2 76/3/2 82/3/2
f 77/3/2 78/3/2 83/3/2
f 82/2/2 77/2/2 83/2/2
f 78/2/2 79/2/2 84/2/2
f 83/3/2 78/3/2 84/3/2
f 79/3/2 80/3/2 85/3/2
f 84/2/2 79/2/2 85/2/2
f 85/3/2 80/3/2 86/3/2
f 87/3/2 88/3/2 93/3/2
f 88/2/2 89/2/2 94/2/2
f 93/3/2 88/3/2 94/3/2
f 89/3/2 90/3/2 95/3/2
f 94/2/2 89/2/2 95/2/2
f 90/2/2 91/2/2 96/2/2
f 95/3/2 90/3/2 96/3/2
f 91/3/2 92/3/2 97/3/2
f 96/2/2 91/2/2 97/2/2
f 97/3/2 92/3/2 98/3/2
f 99/1/2 100/1/2 103/1/2
f 103/1/2 100/1/2 104/1/2
f 101/1/2 102/1/2 105/1/2
f 105/1/2 102/1/2 106/1/2
f 107/4/2 108/4/2 109/4/2
f 109/4/2 108/4/2 110/4/2
f 111/4/2 112/4/2 113/4/2
f 113/4/2 112/4/2 114/4/2
f 115/4/2 116/4/2 117/4/2
f 117/4/2 116/4/2 118/4/2
f 119/4/2 120/4/2 123/4/2
f 123/4/2 120/4/2 124/4/2
f 121/4/2 122/4/2 125/4/2
f 125/4/2 122/4/2 126/4/2
f 127/4/2 128/4/2 129/4/2
f 129/4/2 128/4/2 130/4/2
f 133/1/3 132/1/3 131/1/3
f 134/1/3 132/1/3 133/1/3
f 138/1/3 136/1/3 135/1/3
f 139/1/3 136/1/3 138/1/3
f 141/2/3 138/2/3 137/2/3
f 142/2/3 138/2/3 141/2/3
f 143/2/3 140/2/3 139/2/3
f 144/2/3 140/2/3 143/2/3
f 145/3/3 142/3/3 141/3/3
f 146/3/3 142/3/3 145/3/3
f 147/3/3 144/3/3 143/3/3
f 148/3/3 144/3/3 147/3/3
f 151/4/3 150/4/3 149/4/3
f 152/4/3 150/4/3 151/4/3
f 156/1/3 154/1/3 153/1/3
f 157/1/3 154/1/3 156/1/3
f 159/2/3 156/2/3 155/2/3
f 160/2/3 156/2/3 159/2/3
f 161/2/3 158/2/3 157/2/3
f 162/2/3 158/2/3 161/2/3
f 165/4/3 164/4/3 163/4/3
f 166/4/3 164/4/3 165/4/3
f 169/5/3 168/5/3 167/5/3
f 170/5/3 168/5/3 169/5/3
f 173/4/3 172/4/3 171/4/3
f 174/4/3 172/4/3 173/4/3
f 177/4/3 176/4/3 175/4/3
f 178/4/3 176/4/3 177/4/3
f 181/4/3 180/4/3 179/4/3
f 182/4/3 180/4/3 181/4/3
f 186/1/3 184/1/3 183/1/3
f 187/1/3 184/1/3 186/1/3
f 189/3/3 186/3/3 185/3/3
f 190/3/3 186/3/3 189/3/3
f 191/3/3 188/3/3 187/3/3
f 192/3/3 188/3/3 191/3/3
f 193/1/4 194/1/4 196/1/4
f 196/1/4 194/1/4 197/1/4
f 195/2/4 196/2/4 199/2/4
f 199/2/4 196/2/4 200/2/4
f 197/2/4 198/2/4 201/2/4
f 201/2/4 198/2/4 202/2/4
f 203/6/4 204/6/4 205/6/4
f 205/6/4 204/6/4 206/6/4
f 207/1/4 208/1/4 209/1/4
f 209/1/4 208/1/4 210/1/4
f 209/2/4 210/2/4 211/2/4
f 211/2/4 210/2/4 212/2/4
f 211/1/4 212/1/4 214/1/4
f 214/1/4 212/1/4 215/1/4
f 213/3/4 214/3/4 217/3/4
f 217/3/4 214/3/4 218/3/4
f 215/3/4 216/3/4 219/3/4
f 219/3/4 216/3/4 220/3/4
f 221/4/4 222/4/4 223/4/4
f 223/4/4 222/4/4 224/4/4
f 225/4/4 226/4/4 227/4/4
f 227/4/4 226/4/4 228/4/4
f 229/1/4 230/1/4 232/1/4
f 232/1/4 230/1/4 233/1/4
f 231/3/4 232/3/4 235/3/4
f 235/3/4 232/3/4 236/3/4
f 233/3/4 234/3/4 237/3/4
f 237/3/4 234/3/4 238/3/4
f 239/1/4 240/1/4 241/1/4
f 241/1/4 240/1/4 242/1/4
f 246/2/5 244/2/5 243/2/5
f 247/3/5 245/3/5 244/3/5
f 247/2/5 244/2/5 246/2/5
f 248/3/5 245/3/5 247/3/5
f 250/2/5 248/2/5 247/2/5
f 251/2/5 248/2/5 250/2/5
f 251/2/5 250/2/5 249/2/5
f 252/2/5 248/2/5 251/2/5
f 253/2/5 251/2/5 249/2/5
f 253/3/5 252/3/5 251/3/5
f 254/3/5 252/3/5 253/3/5
f 255/2/5 253/2/5 249/2/5
f 255/2/5 254/2/5 253/2/5
f 256/2/5 254/2/5 255/2/5
f 257/3/5 256/3/5 255/3/5
f 258/2/5 254/2/5 256/2/5
f 258/3/5 256/3/5 257/3/5
f 260/2/5 254/2/5 258/2/5
f 261/2/5 254/2/5 260/2/5
f 262/3/5 260/3/5 259/3/5
f 262/3/5 261/3/5 260/3/5
f 263/3/5 261/3/5 262/3/5
f 267/1/5 265/1/5 264/1/5
f 268/1/5 265/1/5 267/1/5
f 269/1/5 265/1/5 268/1/5
f 270/1/5 267/1/5 266/1/5
f 271/1/5 267/1/5 270/1/5
f 273/1/5 265/1/5 269/1/5
f 274/1/5 265/1/5 273/1/5
f 277/1/5 272/1/5 271/1/5
f 278/1/5 272/1/5 277/1/5
f 279/1/5 274/1/5 273/1/5
f 279/4/5 275/4/5 274/4/5
f 280/4/5 275/4/5 279/4/5
f 281/4/5 275/4/5 280/4/5
f 284/1/5 277/1/5 276/1/5
f 285/1/5 277/1/5 284/1/5
f 286/1/5 279/1/5 273/1/5
f 287/5/5 281/5/5 280/5/5
f 288/5/5 281/5/5 287/5/5
f 289/5/5 281/5/5 288/5/5
f 290/5/5 281/5/5 289/5/5
f 291/4/5 282/4/5 281/4/5
f 291/5/5 281/5/5 290/5/5
f 292/4/5 282/4/5 291/4/5
f 294/5/5 284/5/5 283/5/5
f 295/2/5 285/2/5 284/2/5
f 295/5/5 284/5/5 294/5/5
f 296/2/5 285/2/5 295/2/5
f 297/2/5 285/2/5 296/2/5
f 298/1/5 279/1/5 286/1/5
f 299/6/5 280/6/5 279/6/5
f 299/5/5 287/5/5 280/5/5
f 300/6/5 288/6/5 287/6/5
f 300/5/5 287/5/5 299/5/5
f 301/5/5 289/5/5 288/5/5
f 301/6/5 288/6/5 300/6/5
f 302/6/5 290/6/5 289/6/5
f 302/5/5 289/5/5 301/5/5
f 303/5/5 291/5/5 290/5/5
f 303/6/5 290/6/5 302/6/5
f 303/5/5 292/5/5 291/5/5
f 304/4/5 293/4/5 292/4/5
f 304/5/5 292/5/5 303/5/5
f 305/4/5 293/4/5 304/4/5
f 307/6/5 295/6/5 294/6/5
f 308/3/5 296/3/5 295/3/5
f 308/6/5 295/6/5 307/6/5
f 309/3/5 296/3/5 308/3/5
f 310/1/5 297/1/5 296/1/5
f 310/3/5 296/3/5 309/3/5
f 311/1/5 297/1/5 310/1/5
f 312/6/5 301/6/5 300/6/5
f 312/6/5 303/6/5 302/6/5
f 312/6/5 300/6/5 299/6/5
f 312/6/5 302/6/5 301/6/5
f 312/6/5 304/6/5 303/6/5
f 313/6/5 304/6/5 312/6/5
f 314/6/5 304/6/5 313/6/5
f 315/6/5 304/6/5 314/6/5
f 316/6/5 304/6/5 315/6/5
f 317/5/5 305/5/5 304/5/5
f 317/6/5 304/6/5 316/6/5
f 318/4/5 306/4/5 305/4/5
f 318/5/5 305/5/5 317/5/5
f 319/4/5 306/4/5 318/4/5
f 321/1/5 309/1/5 308/1/5
f 322/2/5 310/2/5 309/2/5
f 322/1/5 309/1/5 321/1/5
f 323/1/5 311/1/5 310/1/5
f 323/2/5 310/2/5 322/2/5
f 324/1/5 311/1/5 323/1/5
f 326/1/5 279/1/5 298/1/5
f 326/6/5 299/6/5 279/6/5
f 326/6/5 312/6/5 299/6/5
f 327/5/5 313/5/5 312/5/5
f 327/6/5 312/6/5 326/6/5
f 328/6/5 314/6/5 313/6/5
f 328/5/5 313/5/5 327/5/5
f 329/5/5 315/5/5 314/5/5
f 329/6/5 314/6/5 328/6/5
f 330/6/5 316/6/5 315/6/5
f 330/5/5 315/5/5 329/5/5
f 331/5/5 317/5/5 316/5/5
f 331/6/5 316/6/5 330/6/5
f 332/6/5 319/6/5 318/6/5
f 332/5/5 317/5/5 331/5/5
f 332/6/5 318/6/5 317/6/5
f 333/4/5 320/4/5 319/4/5
f 333/6/5 319/6/5 332/6/5
f 334/4/5 320/4/5 333/4/5
f 336/1/5 325/1/5 324/1/5
f 337/1/5 325/1/5 336/1/5
f 338/1/5 326/1/5 298/1/5
f 339/4/5 332/4/5 331/4/5
f 339/1/5 326/1/5 338/1/5
f 339/4/5 327/4/5 326/4/5
f 339/4/5 333/4/5 332/4/5
f 339/4/5 331/4/5 330/4/5
f 339/4/5 329/4/5 328/4/5
f 339/4/5 328/4/5 327/4/5
f 339/4/5 330/4/5 329/4/5
f 340/4/5 333/4/5 339/4/5
f 341/1/5 336/1/5 335/1/5
f 342/1/5 336/1/5 341/1/5
f 343/1/5 339/1/5 338/1/5
f 344/1/5 343/1/5 342/1/5
f 345/1/5 339/1/5 343/1/5
f 345/1/5 343/1/5 344/1/5
f 346/1/6 347/1/6 349/1/6
f 349/1/6 347/1/6 350/1/6
f 350/1/6 347/1/6 351/1/6
f 348/1/6 349/1/6 352/1/6
f 352/1/6 349/1/6 353/1/6
f 351/1/6 347/1/6 355/1/6
f 355/1/6 347/1/6 356/1/6
f 353/1/6 354/1/6 359/1/6
f 359/1/6 354/1/6 360/1/6
f 355/1/6 356/1/6 361/1/6
f 356/4/6 357/4/6 361/4/6
f 361/4/6 357/4/6 362/4/6
f 362/4/6 357/4/6 363/4/6
f 358/1/6 359/1/6 366/1/6
f 366/1/6 359/1/6 367/1/6
f 362/5/6 363/5/6 368/5/6
f 368/5/6 363/5/6 369/5/6
f 369/5/6 363/5/6 370/5/6
f 370/5/6 363/5/6 371/5/6
f 363/4/6 364/4/6 372/4/6
f 371/5/6 363/5/6 372/5/6
f 372/4/6 364/4/6 373/4/6
f 365/5/6 366/5/6 375/5/6
f 366/2/6 367/2/6 376/2/6
f 375/5/6 366/5/6 376/5/6
f 376/2/6 367/2/6 377/2/6
f 377/2/6 367/2/6 378/2/6
f 355/1/6 361/1/6 379/1/6
f 361/6/6 362/6/6 380/6/6
f 362/5/6 368/5/6 380/5/6
f 368/6/6 369/6/6 381/6/6
f 380/5/6 368/5/6 381/5/6
f 369/5/6 370/5/6 382/5/6
f 381/6/6 369/6/6 382/6/6
f 370/6/6 371/6/6 383/6/6
f 382/5/6 370/5/6 383/5/6
f 371/5/6 372/5/6 384/5/6
f 383/6/6 371/6/6 384/6/6
f 372/5/6 373/5/6 384/5/6
f 373/4/6 374/4/6 385/4/6
f 384/5/6 373/5/6 385/5/6
f 385/4/6 374/4/6 386/4/6
f 375/6/6 376/6/6 388/6/6
f 376/3/6 377/3/6 389/3/6
f 388/6/6 376/6/6 389/6/6
f 389/3/6 377/3/6 390/3/6
f 377/1/6 378/1/6 391/1/6
f 390/3/6 377/3/6 391/3/6
f 391/1/6 378/1/6 392/1/6
f 379/1/6 361/1/6 393/1/6
f 381/6/6 382/6/6 394/6/6
f 383/6/6 384/6/6 394/6/6
f 380/6/6 381/6/6 394/6/6
f 382/6/6 383/6/6 394/6/6
f 384/6/6 385/6/6 394/6/6
f 394/6/6 385/6/6 395/6/6
f 395/6/6 385/6/6 396/6/6
f 396/6/6 385/6/6 397/6/6
f 397/6/6 385/6/6 398/6/6
f 385/5/6 386/5/6 399/5/6
f 398/6/6 385/6/6 399/6/6
f 386/4/6 387/4/6 400/4/6
f 399/5/6 386/5/6 400/5/6
f 400/4/6 387/4/6 401/4/6
f 389/1/6 390/1/6 403/1/6
f 390/2/6 391/2/6 404/2/6
f 403/1/6 390/1/6 404/1/6
f 391/1/6 392/1/6 405/1/6
f 404/2/6 391/2/6 405/2/6
f 405/1/6 392/1/6 406/1/6
f 393/1/6 361/1/6 408/1/6
f 361/6/6 380/6/6 409/6/6
f 408/1/6 361/1/6 409/1/6
f 380/6/6 394/6/6 409/6/6
f 394/5/6 395/5/6 410/5/6
f 409/6/6 394/6/6 410/6/6
f 395/6/6 396/6/6 411/6/6
f 410/5/6 395/5/6 411/5/6
f 396/5/6 397/5/6 412/5/6
f 411/6/6 396/6/6 412/6/6
f 397/6/6 398/6/6 413/6/6
f 412/5/6 397/5/6 413/5/6
f 398/5/6 399/5/6 414/5/6
f 413/6/6 398/6/6 414/6/6
f 400/6/6 401/6/6 415/6/6
f 414/5/6 399/5/6 415/5/6
f 399/6/6 400/6/6 415/6/6
f 401/4/6 402/4/6 416/4/6
f 415/6/6 401/6/6 416/6/6
f 416/4/6 402/4/6 417/4/6
f 406/1/6 407/1/6 419/1/6
f 419/1/6 407/1/6 420/1/6
f 410/4/6 411/4/6 421/4/6
f 414/4/6 415/4/6 421/4/6
f 413/4/6 414/4/6 421/4/6
f 412/4/6 413/4/6 421/4/6
f 409/4/6 410/4/6 421/4/6
f 408/1/6 409/1/6 421/1/6
f 415/4/6 416/4/6 421/4/6
f 411/4/6 412/4/6 421/4/6
f 421/4/6 416/4/6 422/4/6
f 418/1/6 419/1/6 423/1/6
f 423/1/6 419/1/6 424/1/6
f 408/1/6 421/1/6 425/1/6
f 424/1/6 425/1/6 426/1/6
f 425/1/6 421/1/6 427/1/6
f 426/1/6 425/1/6 427/1/6
f 428/2/6 429/2/6 431/2/6
f 429/3/6 430/3/6 432/3/6
f 431/2/6 429/2/6 432/2/6
f 432/3/6 430/3/6 433/3/6
f 432/2/6 433/2/6 435/2/6
f 435/2/6 433/2/6 436/2/6
f 434/2/6 435/2/6 436/2/6
f 436/2/6 433/2/6 437/2/6
f 434/2/6 436/2/6 438/2/6
f 436/3/6 437/3/6 439/3/6
f 438/2/6 436/2/6 439/2/6
f 439/3/6 437/3/6 440/3/6
f 438/3/6 439/3/6 441/3/6
f 439/2/6 440/2/6 442/2/6
f 441/3/6 439/3/6 442/3/6
f 442/2/6 440/2/6 443/2/6
f 442/3/6 443/3/6 445/3/6
f 444/3/6 445/3/6 446/3/6
f 445/3/6 443/3/6 447/3/6
f 446/3/6 445/3/6 447/3/6
